<?xml version="1.0" standalone="no"?>
<!DOCTYPE svg PUBLIC "-//W3C//DTD SVG 20010904//EN" "http://www.w3.org/TR/2001/REC-SVG-20010904/DTD/svg10.dtd">

<svg version="1.0"
     xmlns="http://www.w3.org/2000/svg"
     width="100.000000pt" height="100.000000pt"
     viewBox="0 0 100.000000 100.000000"
     preserveAspectRatio="xMidYMid meet">

<g transform="translate(0.000000,100.000000) scale(0.100000,-0.100000)"
   stroke-width="4"
   style="stroke: #454096FF; fill: #454096FF">

<path d="M282 918 c-7 -7 -12 -20 -12 -30 0 -13 -8 -18 -26 -18 -34 0 -78 -26
-97 -59 -19 -32 -31 -111 -22 -140 6 -21 10 -21 346 -21 l339 0 0 -79 c0 -92
5 -111 31 -111 34 0 41 35 37 179 -3 110 -7 142 -22 167 -22 37 -64 64 -100
64 -19 0 -26 5 -26 19 0 43 -56 50 -62 8 -3 -22 -6 -22 -168 -22 -157 0 -165
1 -169 20 -6 32 -29 43 -49 23z m-4 -128 c7 -11 19 -20 28 -20 9 0 18 9 21 20
5 19 14 20 173 20 159 0 168 -1 173 -20 3 -11 12 -20 21 -20 9 0 21 9 28 20
26 41 88 6 88 -50 l0 -30 -310 0 -310 0 0 30 c0 33 30 70 58 70 9 0 23 -9 30
-20z"/>

<path d="M129 549 c-7 -14 -10 -72 -7 -173 4 -168 13 -196 72 -232 28 -17 54
-19 306 -19 252 0 278 2 306 19 44 26 64 65 70 138 7 74 -11 112 -43 92 -14
-8 -19 -28 -23 -83 -4 -57 -9 -76 -24 -87 -16 -11 -72 -14 -288 -14 -255 0
-269 1 -288 20 -18 18 -20 33 -20 174 0 85 -3 161 -6 170 -9 23 -41 20 -55 -5z"/>

</g>
</svg>
