<!DOCTYPE svg PUBLIC "-//W3C//DTD SVG 20010904//EN" "http://www.w3.org/TR/2001/REC-SVG-20010904/DTD/svg10.dtd">

<svg version="1.0"
     xmlns="http://www.w3.org/2000/svg"
     width="100.000000pt" height="100.000000pt"
     viewBox="0 0 100.000000 100.000000"
     preserveAspectRatio="xMidYMid meet">

<g transform="translate(0.000000,100.000000) scale(0.100000,-0.100000)"
   stroke-width="20"
   style="stroke: #C2CBDAFF; fill: #C2CBDAFF">

<path d="M285 978 c-2 -7 -6 -35 -7 -63 l-3 -50 -59 -7 c-74 -10 -114 -33
-140 -83 -20 -38 -21 -55 -21 -340 0 -342 2 -352 78 -396 40 -23 51 -24 207
-24 140 0 165 2 165 15 0 12 -30 17 -165 26 -92 6 -175 16 -188 23 -44 23 -54
71 -60 276 -2 105 -2 217 2 248 l7 57 399 0 398 0 7 -65 c6 -56 10 -65 27 -65
20 0 20 5 16 103 -7 162 -42 210 -166 225 l-57 7 -5 60 c-4 52 -8 60 -25 60
-17 0 -20 -8 -23 -57 l-3 -58 -169 0 -169 0 -3 57 c-2 46 -7 59 -21 61 -9 2
-19 -2 -22 -10z m552 -181 c34 -18 53 -44 53 -71 0 -14 -43 -16 -390 -16 -374
0 -390 1 -390 19 0 32 38 69 83 80 23 5 169 9 327 8 251 -2 289 -4 317 -20z"/>

<path d="M625 496 c-94 -44 -144 -126 -145 -232 0 -175 177 -299 343 -240 160
58 218 261 114 398 -71 93 -205 125 -312 74z m160 -27 c53 -13 116 -65 139
-114 36 -75 15 -187 -46 -241 -61 -56 -161 -72 -233 -38 -51 24 -101 87 -115
144 -24 101 41 214 141 245 55 17 61 17 114 4z"/>

<path d="M717 374 c-4 -4 -7 -33 -7 -64 0 -52 3 -59 38 -93 21 -20 46 -37 55
-37 27 0 20 33 -13 65 -23 22 -30 38 -32 79 -2 36 -7 52 -18 54 -9 1 -19 0
-23 -4z"/>

</g>
</svg>
